<svg xmlns="http://www.w3.org/2000/svg" xmlns:xlink="http://www.w3.org/1999/xlink" width="1240" height="928.4"><rect width="1240" height="928.4" rx="5" ry="5" class="a"/><svg y="0%" x="0%"><circle cx="20" cy="20" r="6" fill="#ff5f58"/><circle cx="40" cy="20" r="6" fill="#ffbd2e"/><circle cx="60" cy="20" r="6" fill="#18c132"/></svg><svg height="868.4" viewBox="0 0 120 86.84" width="1200" x="15" xmlns="http://www.w3.org/2000/svg" xmlns:xlink="http://www.w3.org/1999/xlink" y="50"><style>@keyframes j{0%{transform:translateX(0)}.01%{transform:translateX(-120px)}5.79%{transform:translateX(-240px)}6.06%{transform:translateX(-360px)}7.38%{transform:translateX(-480px)}7.9%{transform:translateX(-600px)}8.13%{transform:translateX(-720px)}8.41%{transform:translateX(-840px)}9.77%{transform:translateX(-1200px)}11.2%{transform:translateX(-1320px)}11.95%{transform:translateX(-1440px)}12.17%{transform:translateX(-1560px)}12.44%{transform:translateX(-1680px)}12.62%{transform:translateX(-1800px)}12.86%{transform:translateX(-1920px)}13.04%{transform:translateX(-2040px)}13.68%{transform:translateX(-2160px)}14.55%{transform:translateX(-2280px)}14.99%{transform:translateX(-2400px)}15.22%{transform:translateX(-2520px)}15.83%{transform:translateX(-2640px)}16.17%{transform:translateX(-2760px)}16.25%{transform:translateX(-2880px)}17.28%{transform:translateX(-3000px)}17.29%{transform:translateX(-3120px)}19.14%{transform:translateX(-3240px)}19.56%{transform:translateX(-3360px)}19.8%{transform:translateX(-3480px)}20.16%{transform:translateX(-3600px)}20.4%{transform:translateX(-3720px)}20.68%{transform:translateX(-3840px)}20.93%{transform:translateX(-3960px)}22.94%{transform:translateX(-4080px)}24.42%{transform:translateX(-4200px)}24.95%{transform:translateX(-4320px)}25.52%{transform:translateX(-4440px)}28.98%{transform:translateX(-4560px)}30.02%{transform:translateX(-4680px)}30.82%{transform:translateX(-4800px)}31.26%{transform:translateX(-4920px)}32.56%{transform:translateX(-5160px)}39.8%{transform:translateX(-5280px)}45.04%{transform:translateX(-5520px)}61.21%{transform:translateX(-5760px)}70.35%{transform:translateX(-6000px)}79.57%{transform:translateX(-6120px)}79.59%{transform:translateX(-6240px)}80.18%{transform:translateX(-6360px)}83.89%{transform:translateX(-6480px)}84.89%{transform:translateX(-6600px)}85.75%{transform:translateX(-7080px)}95.36%{transform:translateX(-7200px)}97.38%{transform:translateX(-7320px)}to{transform:translateX(-7560px)}}.a{fill:#282d35}.f{fill:#b9c0cb;white-space:pre}</style><g font-family="Monaco,Consolas,Menlo,'Bitstream Vera Sans Mono','Powerline Symbols',monospace" font-size="1.67"><defs><symbol id="1"><text y="1.67" class="f">LAPTOP-VKHDD5JR:~/src/create-gpg-key#</text></symbol><symbol id="2"><text y="1.67" class="f">LAPTOP-VKHDD5JR:~/src/create-gpg-key#</text><text x="38.076" y="1.67" class="f">./create_gpg_key.sh</text></symbol><symbol id="3"><text y="1.67" class="f">Enter</text><text x="6.012" y="1.67" class="f">user</text><text x="11.022" y="1.67" class="f">name:</text><text x="17.034" y="1.67" class="f">Antoine</text></symbol><symbol id="4"><text y="1.67" class="f">Enter</text><text x="6.012" y="1.67" class="f">user</text><text x="11.022" y="1.67" class="f">name:</text><text x="17.034" y="1.67" class="f">Antoine</text><text x="25.05" y="1.67" class="f">Martin</text></symbol><symbol id="5"><text y="1.67" class="f">Enter</text><text x="6.012" y="1.67" class="f">user</text><text x="11.022" y="1.67" class="f">email:</text><text x="18.036" y="1.67" class="f">antoine@mrtn.fr</text></symbol><symbol id="6"><text y="1.67" class="f">Using</text><text x="6.012" y="1.67" class="f">user</text><text x="11.022" y="1.67" class="f">id</text><text x="14.028" y="1.67" class="f">Antoine</text><text x="22.044" y="1.67" class="f">Martin</text><text x="29.058" y="1.67" class="f">&lt;antoine@mrtn.fr&gt;</text></symbol><symbol id="7"><text y="1.67" class="f">Enter</text><text x="6.012" y="1.67" class="f">password</text><text x="15.03" y="1.67" class="f">(hard</text><text x="21.042" y="1.67" class="f">to</text><text x="24.048" y="1.67" class="f">guess,</text><text x="31.062" y="1.67" class="f">easy</text><text x="36.072" y="1.67" class="f">to</text><text x="39.078" y="1.67" class="f">remember</text><text x="48.096" y="1.67" class="f">and</text><text x="52.104" y="1.67" class="f">use):</text></symbol><symbol id="8"><text y="1.67" class="f">Enter</text><text x="6.012" y="1.67" class="f">again</text><text x="12.024" y="1.67" class="f">for</text><text x="16.032" y="1.67" class="f">confirmation:</text></symbol><symbol id="9"><text y="1.67" class="f">Working</text><text x="8.016" y="1.67" class="f">in</text><text x="11.022" y="1.67" class="f">/tmp/tmp.OCpGFo</text></symbol><symbol id="10"><text y="1.67" class="f">Generated</text><text x="10.02" y="1.67" class="f">key</text><text x="14.028" y="1.67" class="f">information:</text></symbol><symbol id="11"><text y="1.67" class="f">/tmp/tmp.OCpGFo/pubring.kbx</text></symbol><symbol id="12"><text y="1.67" class="f">---------------------------</text></symbol><symbol id="13"><text y="1.67" class="f">sec</text><text x="6.012" y="1.67" class="f">rsa4096/947A0E42</text><text x="23.046" y="1.67" class="f">2022-04-18</text><text x="34.068" y="1.67" class="f">[C]</text><text x="38.076" y="1.67" class="f">[expires:</text><text x="48.096" y="1.67" class="f">2024-04-17]</text></symbol><symbol id="14"><text x="6.012" y="1.67" class="f">ACF99E63AF801653F12D607C9D029AB4947A0E42</text></symbol><symbol id="15"><text y="1.67" class="f">uid</text><text x="12.024" y="1.67" class="f">[ultimate]</text><text x="23.046" y="1.67" class="f">Antoine</text><text x="31.062" y="1.67" class="f">Martin</text><text x="38.076" y="1.67" class="f">&lt;antoine@mrtn.fr&gt;</text></symbol><symbol id="16"><text y="1.67" class="f">ssb</text><text x="6.012" y="1.67" class="f">rsa4096/9139CEAA</text><text x="23.046" y="1.67" class="f">2022-04-18</text><text x="34.068" y="1.67" class="f">[S]</text><text x="38.076" y="1.67" class="f">[expires:</text><text x="48.096" y="1.67" class="f">2023-04-18]</text></symbol><symbol id="17"><text y="1.67" class="f">ssb</text><text x="6.012" y="1.67" class="f">rsa4096/CEDAA10F</text><text x="23.046" y="1.67" class="f">2022-04-18</text><text x="34.068" y="1.67" class="f">[E]</text><text x="38.076" y="1.67" class="f">[expires:</text><text x="48.096" y="1.67" class="f">2023-04-18]</text></symbol><symbol id="18"><text y="1.67" class="f">ssb</text><text x="6.012" y="1.67" class="f">rsa4096/3497A570</text><text x="23.046" y="1.67" class="f">2022-04-18</text><text x="34.068" y="1.67" class="f">[A]</text><text x="38.076" y="1.67" class="f">[expires:</text><text x="48.096" y="1.67" class="f">2023-04-18]</text></symbol><symbol id="19"><text y="1.67" class="f">Saved</text><text x="6.012" y="1.67" class="f">private</text><text x="14.028" y="1.67" class="f">key</text><text x="18.036" y="1.67" class="f">in</text><text x="21.042" y="1.67" class="f">file</text><text x="26.052" y="1.67" class="f">acf99e63af801653f12d607c9d029ab4947a0e42-antoine-mrtn-fr.key.asc</text></symbol><symbol id="20"><text y="1.67" class="f">Saved</text><text x="6.012" y="1.67" class="f">private</text><text x="14.028" y="1.67" class="f">key</text><text x="18.036" y="1.67" class="f">with</text><text x="23.046" y="1.67" class="f">only</text><text x="28.056" y="1.67" class="f">private</text><text x="36.072" y="1.67" class="f">subkeys</text><text x="44.088" y="1.67" class="f">in</text><text x="47.094" y="1.67" class="f">file</text><text x="52.104" y="1.67" class="f">acf99e63af801653f12d607c9d029ab4947a0e42-antoine-mrtn-fr.sub.asc</text></symbol><symbol id="21"><text y="1.67" class="f">Saved</text><text x="6.012" y="1.67" class="f">public</text><text x="13.026" y="1.67" class="f">key</text><text x="17.034" y="1.67" class="f">in</text><text x="20.04" y="1.67" class="f">file</text><text x="25.05" y="1.67" class="f">acf99e63af801653f12d607c9d029ab4947a0e42-antoine-mrtn-fr.pub.asc</text></symbol><symbol id="22"><text y="1.67" class="f">Saved</text><text x="6.012" y="1.67" class="f">revocation</text><text x="17.034" y="1.67" class="f">certificate</text><text x="29.058" y="1.67" class="f">in</text><text x="32.064" y="1.67" class="f">file</text><text x="37.074" y="1.67" class="f">acf99e63af801653f12d607c9d029ab4947a0e42-antoine-mrtn-fr.rev.asc</text></symbol><symbol id="23"><text y="1.67" class="f">Saved</text><text x="6.012" y="1.67" class="f">public</text><text x="13.026" y="1.67" class="f">SSH</text><text x="17.034" y="1.67" class="f">key</text><text x="21.042" y="1.67" class="f">in</text><text x="24.048" y="1.67" class="f">file</text><text x="29.058" y="1.67" class="f">acf99e63af801653f12d607c9d029ab4947a0e42-antoine-mrtn-fr_rsa.pub</text></symbol><symbol id="24"><text y="1.67" class="f">Now</text><text x="4.008" y="1.67" class="f">you</text><text x="8.016" y="1.67" class="f">should:</text></symbol><symbol id="25"><text y="1.67" class="f">-</text><text x="2.004" y="1.67" class="f">Save</text><text x="7.014" y="1.67" class="f">the</text><text x="11.022" y="1.67" class="f">private</text><text x="19.038" y="1.67" class="f">key</text><text x="23.046" y="1.67" class="f">and</text><text x="27.054" y="1.67" class="f">revocation</text><text x="38.076" y="1.67" class="f">certificate</text><text x="50.1" y="1.67" class="f">in</text><text x="53.106" y="1.67" class="f">an</text><text x="56.112" y="1.67" class="f">encrypted</text><text x="66.132" y="1.67" class="f">portable</text><text x="75.15" y="1.67" class="f">drive</text><text x="81.162" y="1.67" class="f">or</text><text x="84.168" y="1.67" class="f">a</text><text x="86.172" y="1.67" class="f">safe.</text></symbol><symbol id="26"><text y="1.67" class="f">-</text><text x="2.004" y="1.67" class="f">Import</text><text x="9.018" y="1.67" class="f">the</text><text x="13.026" y="1.67" class="f">secret</text><text x="20.04" y="1.67" class="f">subkeys</text><text x="28.056" y="1.67" class="f">where</text><text x="34.068" y="1.67" class="f">you</text><text x="38.076" y="1.67" class="f">want</text><text x="43.086" y="1.67" class="f">to</text><text x="46.092" y="1.67" class="f">use</text><text x="50.1" y="1.67" class="f">them.</text></symbol><symbol id="27"><text y="1.67" class="f">-</text><text x="2.004" y="1.67" class="f">Distribute</text><text x="13.026" y="1.67" class="f">and/or</text><text x="20.04" y="1.67" class="f">publish</text><text x="28.056" y="1.67" class="f">the</text><text x="32.064" y="1.67" class="f">public</text><text x="39.078" y="1.67" class="f">key</text><text x="43.086" y="1.67" class="f">(keys.openpgp.org</text><text x="61.122" y="1.67" class="f">for</text><text x="65.13" y="1.67" class="f">instance).</text></symbol><symbol id="28"><text y="1.67" class="f">-</text><text x="2.004" y="1.67" class="f">Export</text><text x="9.018" y="1.67" class="f">the</text><text x="13.026" y="1.67" class="f">ssh</text><text x="17.034" y="1.67" class="f">key</text><text x="21.042" y="1.67" class="f">to</text><text x="24.048" y="1.67" class="f">the</text><text x="28.056" y="1.67" class="f">authorized_keys</text><text x="44.088" y="1.67" class="f">file</text><text x="49.098" y="1.67" class="f">of</text><text x="52.104" y="1.67" class="f">servers.</text></symbol><symbol id="29"><text y="1.67" class="f">For</text><text x="4.008" y="1.67" class="f">more</text><text x="9.018" y="1.67" class="f">information:</text><text x="22.044" y="1.67" class="f">https://github.com/lfit/itpol/blob/master/protecting-code-integrity.md</text></symbol><symbol id="30"><text y="1.67" class="f">LAPTOP-VKHDD5JR:~/src/create-gpg-key#</text><text x="38.076" y="1.67" class="f">ls</text></symbol><symbol id="31"><text y="1.67" class="f">LAPTOP-VKHDD5JR:~/src/create-gpg-key#</text><text x="38.076" y="1.67" class="f">ls</text><text x="41.082" y="1.67" class="f">-1</text></symbol><symbol id="32"><text y="1.67" class="f">LICENSE</text></symbol><symbol id="33"><text y="1.67" class="f">README.md</text></symbol><symbol id="34"><text y="1.67" class="f">acf99e63af801653f12d607c9d029ab4947a0e42-antoine-mrtn-fr.key.asc</text></symbol><symbol id="35"><text y="1.67" class="f">acf99e63af801653f12d607c9d029ab4947a0e42-antoine-mrtn-fr.pub.asc</text></symbol><symbol id="36"><text y="1.67" class="f">acf99e63af801653f12d607c9d029ab4947a0e42-antoine-mrtn-fr.rev.asc</text></symbol><symbol id="37"><text y="1.67" class="f">acf99e63af801653f12d607c9d029ab4947a0e42-antoine-mrtn-fr.sub.asc</text></symbol><symbol id="38"><text y="1.67" class="f">acf99e63af801653f12d607c9d029ab4947a0e42-antoine-mrtn-fr_rsa.pub</text></symbol><symbol id="39"><text y="1.67" style="white-space:pre" fill="#a8cc8c" font-weight="700">create_gpg_key.sh</text></symbol><symbol id="a"><path fill="transparent" d="M0 0h120v41H0z"/></symbol><symbol id="b"><path fill="#6f7683" d="M0 0h1.102v2.171H0z"/></symbol></defs><path class="a" d="M0 0h120v86.84H0z"/><g style="animation-duration:37.434071s;animation-iteration-count:infinite;animation-name:j;animation-timing-function:steps(1,end)"><svg width="7680"><svg><use xlink:href="#a"/><use xlink:href="#b" x="-.004"/></svg><svg x="120"><use xlink:href="#a"/><use xlink:href="#b" x="37.996"/><use xlink:href="#1"/></svg><svg x="240"><use xlink:href="#a"/><use xlink:href="#b" x="38.996"/><text y="1.67" class="f">LAPTOP-VKHDD5JR:~/src/create-gpg-key#</text><text x="38.076" y="1.67" class="f">.</text></svg><svg x="360"><use xlink:href="#a"/><use xlink:href="#b" x="39.996"/><text y="1.67" class="f">LAPTOP-VKHDD5JR:~/src/create-gpg-key#</text><text x="38.076" y="1.67" class="f">./</text></svg><svg x="480"><use xlink:href="#a"/><use xlink:href="#b" x="40.996"/><text y="1.67" class="f">LAPTOP-VKHDD5JR:~/src/create-gpg-key#</text><text x="38.076" y="1.67" class="f">./c</text></svg><svg x="600"><use xlink:href="#a"/><use xlink:href="#b" x="41.996"/><text y="1.67" class="f">LAPTOP-VKHDD5JR:~/src/create-gpg-key#</text><text x="38.076" y="1.67" class="f">./cr</text></svg><svg x="720"><use xlink:href="#a"/><use xlink:href="#b" x="42.996"/><text y="1.67" class="f">LAPTOP-VKHDD5JR:~/src/create-gpg-key#</text><text x="38.076" y="1.67" class="f">./cre</text></svg><svg x="840"><use xlink:href="#a"/><use xlink:href="#b" x="57.996"/><use xlink:href="#2"/></svg><svg x="960"><use xlink:href="#a"/><use xlink:href="#b" x="-.004" y="2.146"/><use xlink:href="#2"/></svg><svg x="1080"><use xlink:href="#a"/><use xlink:href="#b" x="-.004" y="2.146"/><use xlink:href="#2"/></svg><svg x="1200"><use xlink:href="#a"/><use xlink:href="#b" x="16.996" y="2.146"/><use xlink:href="#2"/><text y="3.841" class="f">Enter</text><text x="6.012" y="3.841" class="f">user</text><text x="11.022" y="3.841" class="f">name:</text></svg><svg x="1320"><use xlink:href="#a"/><use xlink:href="#b" x="17.996" y="2.146"/><use xlink:href="#2"/><text y="3.841" class="f">Enter</text><text x="6.012" y="3.841" class="f">user</text><text x="11.022" y="3.841" class="f">name:</text><text x="17.034" y="3.841" class="f">A</text></svg><svg x="1440"><use xlink:href="#a"/><use xlink:href="#b" x="18.996" y="2.146"/><use xlink:href="#2"/><text y="3.841" class="f">Enter</text><text x="6.012" y="3.841" class="f">user</text><text x="11.022" y="3.841" class="f">name:</text><text x="17.034" y="3.841" class="f">An</text></svg><svg x="1560"><use xlink:href="#a"/><use xlink:href="#b" x="19.996" y="2.146"/><use xlink:href="#2"/><text y="3.841" class="f">Enter</text><text x="6.012" y="3.841" class="f">user</text><text x="11.022" y="3.841" class="f">name:</text><text x="17.034" y="3.841" class="f">Ant</text></svg><svg x="1680"><use xlink:href="#a"/><use xlink:href="#b" x="20.996" y="2.146"/><use xlink:href="#2"/><text y="3.841" class="f">Enter</text><text x="6.012" y="3.841" class="f">user</text><text x="11.022" y="3.841" class="f">name:</text><text x="17.034" y="3.841" class="f">Anto</text></svg><svg x="1800"><use xlink:href="#a"/><use xlink:href="#b" x="21.996" y="2.146"/><use xlink:href="#2"/><text y="3.841" class="f">Enter</text><text x="6.012" y="3.841" class="f">user</text><text x="11.022" y="3.841" class="f">name:</text><text x="17.034" y="3.841" class="f">Antoi</text></svg><svg x="1920"><use xlink:href="#a"/><use xlink:href="#b" x="22.996" y="2.146"/><use xlink:href="#2"/><text y="3.841" class="f">Enter</text><text x="6.012" y="3.841" class="f">user</text><text x="11.022" y="3.841" class="f">name:</text><text x="17.034" y="3.841" class="f">Antoin</text></svg><svg x="2040"><use xlink:href="#a"/><use xlink:href="#b" x="23.996" y="2.146"/><use xlink:href="#2"/><use xlink:href="#3" y="2.171"/></svg><svg x="2160"><use xlink:href="#a"/><use xlink:href="#b" x="24.996" y="2.146"/><use xlink:href="#2"/><use xlink:href="#3" y="2.171"/></svg><svg x="2280"><use xlink:href="#a"/><use xlink:href="#b" x="25.996" y="2.146"/><use xlink:href="#2"/><text y="3.841" class="f">Enter</text><text x="6.012" y="3.841" class="f">user</text><text x="11.022" y="3.841" class="f">name:</text><text x="17.034" y="3.841" class="f">Antoine</text><text x="25.05" y="3.841" class="f">M</text></svg><svg x="2400"><use xlink:href="#a"/><use xlink:href="#b" x="26.996" y="2.146"/><use xlink:href="#2"/><text y="3.841" class="f">Enter</text><text x="6.012" y="3.841" class="f">user</text><text x="11.022" y="3.841" class="f">name:</text><text x="17.034" y="3.841" class="f">Antoine</text><text x="25.05" y="3.841" class="f">Ma</text></svg><svg x="2520"><use xlink:href="#a"/><use xlink:href="#b" x="27.996" y="2.146"/><use xlink:href="#2"/><text y="3.841" class="f">Enter</text><text x="6.012" y="3.841" class="f">user</text><text x="11.022" y="3.841" class="f">name:</text><text x="17.034" y="3.841" class="f">Antoine</text><text x="25.05" y="3.841" class="f">Mar</text></svg><svg x="2640"><use xlink:href="#a"/><use xlink:href="#b" x="28.996" y="2.146"/><use xlink:href="#2"/><text y="3.841" class="f">Enter</text><text x="6.012" y="3.841" class="f">user</text><text x="11.022" y="3.841" class="f">name:</text><text x="17.034" y="3.841" class="f">Antoine</text><text x="25.05" y="3.841" class="f">Mart</text></svg><svg x="2760"><use xlink:href="#a"/><use xlink:href="#b" x="29.996" y="2.146"/><use xlink:href="#2"/><text y="3.841" class="f">Enter</text><text x="6.012" y="3.841" class="f">user</text><text x="11.022" y="3.841" class="f">name:</text><text x="17.034" y="3.841" class="f">Antoine</text><text x="25.05" y="3.841" class="f">Marti</text></svg><svg x="2880"><use xlink:href="#a"/><use xlink:href="#b" x="30.996" y="2.146"/><use xlink:href="#2"/><use xlink:href="#4" y="2.171"/></svg><svg x="3000"><use xlink:href="#a"/><use xlink:href="#b" x="-.004" y="4.317"/><use xlink:href="#2"/><use xlink:href="#4" y="2.171"/></svg><svg x="3120"><use xlink:href="#a"/><use xlink:href="#b" x="17.996" y="4.317"/><use xlink:href="#2"/><use xlink:href="#4" y="2.171"/><text y="6.012" class="f">Enter</text><text x="6.012" y="6.012" class="f">user</text><text x="11.022" y="6.012" class="f">email:</text></svg><svg x="3240"><use xlink:href="#a"/><use xlink:href="#b" x="18.996" y="4.317"/><use xlink:href="#2"/><use xlink:href="#4" y="2.171"/><text y="6.012" class="f">Enter</text><text x="6.012" y="6.012" class="f">user</text><text x="11.022" y="6.012" class="f">email:</text><text x="18.036" y="6.012" class="f">a</text></svg><svg x="3360"><use xlink:href="#a"/><use xlink:href="#b" x="19.996" y="4.317"/><use xlink:href="#2"/><use xlink:href="#4" y="2.171"/><text y="6.012" class="f">Enter</text><text x="6.012" y="6.012" class="f">user</text><text x="11.022" y="6.012" class="f">email:</text><text x="18.036" y="6.012" class="f">an</text></svg><svg x="3480"><use xlink:href="#a"/><use xlink:href="#b" x="20.996" y="4.317"/><use xlink:href="#2"/><use xlink:href="#4" y="2.171"/><text y="6.012" class="f">Enter</text><text x="6.012" y="6.012" class="f">user</text><text x="11.022" y="6.012" class="f">email:</text><text x="18.036" y="6.012" class="f">ant</text></svg><svg x="3600"><use xlink:href="#a"/><use xlink:href="#b" x="21.996" y="4.317"/><use xlink:href="#2"/><use xlink:href="#4" y="2.171"/><text y="6.012" class="f">Enter</text><text x="6.012" y="6.012" class="f">user</text><text x="11.022" y="6.012" class="f">email:</text><text x="18.036" y="6.012" class="f">anto</text></svg><svg x="3720"><use xlink:href="#a"/><use xlink:href="#b" x="22.996" y="4.317"/><use xlink:href="#2"/><use xlink:href="#4" y="2.171"/><text y="6.012" class="f">Enter</text><text x="6.012" y="6.012" class="f">user</text><text x="11.022" y="6.012" class="f">email:</text><text x="18.036" y="6.012" class="f">antoi</text></svg><svg x="3840"><use xlink:href="#a"/><use xlink:href="#b" x="23.996" y="4.317"/><use xlink:href="#2"/><use xlink:href="#4" y="2.171"/><text y="6.012" class="f">Enter</text><text x="6.012" y="6.012" class="f">user</text><text x="11.022" y="6.012" class="f">email:</text><text x="18.036" y="6.012" class="f">antoin</text></svg><svg x="3960"><use xlink:href="#a"/><use xlink:href="#b" x="24.996" y="4.317"/><use xlink:href="#2"/><use xlink:href="#4" y="2.171"/><text y="6.012" class="f">Enter</text><text x="6.012" y="6.012" class="f">user</text><text x="11.022" y="6.012" class="f">email:</text><text x="18.036" y="6.012" class="f">antoine</text></svg><svg x="4080"><use xlink:href="#a"/><use xlink:href="#b" x="25.996" y="4.317"/><use xlink:href="#2"/><use xlink:href="#4" y="2.171"/><text y="6.012" class="f">Enter</text><text x="6.012" y="6.012" class="f">user</text><text x="11.022" y="6.012" class="f">email:</text><text x="18.036" y="6.012" class="f">antoine@</text></svg><svg x="4200"><use xlink:href="#a"/><use xlink:href="#b" x="26.996" y="4.317"/><use xlink:href="#2"/><use xlink:href="#4" y="2.171"/><text y="6.012" class="f">Enter</text><text x="6.012" y="6.012" class="f">user</text><text x="11.022" y="6.012" class="f">email:</text><text x="18.036" y="6.012" class="f">antoine@m</text></svg><svg x="4320"><use xlink:href="#a"/><use xlink:href="#b" x="27.996" y="4.317"/><use xlink:href="#2"/><use xlink:href="#4" y="2.171"/><text y="6.012" class="f">Enter</text><text x="6.012" y="6.012" class="f">user</text><text x="11.022" y="6.012" class="f">email:</text><text x="18.036" y="6.012" class="f">antoine@mr</text></svg><svg x="4440"><use xlink:href="#a"/><use xlink:href="#b" x="28.996" y="4.317"/><use xlink:href="#2"/><use xlink:href="#4" y="2.171"/><text y="6.012" class="f">Enter</text><text x="6.012" y="6.012" class="f">user</text><text x="11.022" y="6.012" class="f">email:</text><text x="18.036" y="6.012" class="f">antoine@mrt</text></svg><svg x="4560"><use xlink:href="#a"/><use xlink:href="#b" x="29.996" y="4.317"/><use xlink:href="#2"/><use xlink:href="#4" y="2.171"/><text y="6.012" class="f">Enter</text><text x="6.012" y="6.012" class="f">user</text><text x="11.022" y="6.012" class="f">email:</text><text x="18.036" y="6.012" class="f">antoine@mrtn</text></svg><svg x="4680"><use xlink:href="#a"/><use xlink:href="#b" x="30.996" y="4.317"/><use xlink:href="#2"/><use xlink:href="#4" y="2.171"/><text y="6.012" class="f">Enter</text><text x="6.012" y="6.012" class="f">user</text><text x="11.022" y="6.012" class="f">email:</text><text x="18.036" y="6.012" class="f">antoine@mrtn.</text></svg><svg x="4800"><use xlink:href="#a"/><use xlink:href="#b" x="31.996" y="4.317"/><use xlink:href="#2"/><use xlink:href="#4" y="2.171"/><text y="6.012" class="f">Enter</text><text x="6.012" y="6.012" class="f">user</text><text x="11.022" y="6.012" class="f">email:</text><text x="18.036" y="6.012" class="f">antoine@mrtn.f</text></svg><svg x="4920"><use xlink:href="#a"/><use xlink:href="#b" x="32.996" y="4.317"/><use xlink:href="#2"/><use xlink:href="#4" y="2.171"/><use xlink:href="#5" y="4.342"/></svg><svg x="5040"><use xlink:href="#a"/><use xlink:href="#b" x="-.004" y="6.488"/><use xlink:href="#2"/><use xlink:href="#4" y="2.171"/><use xlink:href="#5" y="4.342"/></svg><svg x="5160"><use xlink:href="#a"/><use xlink:href="#b" x="57.996" y="8.659"/><use xlink:href="#2"/><use xlink:href="#4" y="2.171"/><use xlink:href="#5" y="4.342"/><use xlink:href="#6" y="6.513"/><use xlink:href="#7" y="8.684"/></svg><svg x="5280"><use xlink:href="#a"/><use xlink:href="#b" x="29.996" y="10.83"/><use xlink:href="#2"/><use xlink:href="#4" y="2.171"/><use xlink:href="#5" y="4.342"/><use xlink:href="#6" y="6.513"/><use xlink:href="#7" y="8.684"/><use xlink:href="#8" y="10.855"/></svg><svg x="5400"><use xlink:href="#a"/><use xlink:href="#b" x="-.004" y="13.001"/><use xlink:href="#2"/><use xlink:href="#4" y="2.171"/><use xlink:href="#5" y="4.342"/><use xlink:href="#6" y="6.513"/><use xlink:href="#7" y="8.684"/><use xlink:href="#8" y="10.855"/></svg><svg x="5520"><use xlink:href="#a"/><use xlink:href="#b" x="-.004" y="15.172"/><use xlink:href="#2"/><use xlink:href="#4" y="2.171"/><use xlink:href="#5" y="4.342"/><use xlink:href="#6" y="6.513"/><use xlink:href="#7" y="8.684"/><use xlink:href="#8" y="10.855"/><use xlink:href="#9" y="13.026"/></svg><svg x="5640"><use xlink:href="#a"/><use xlink:href="#b" x="-.004" y="19.514"/><use xlink:href="#2"/><use xlink:href="#4" y="2.171"/><use xlink:href="#5" y="4.342"/><use xlink:href="#6" y="6.513"/><use xlink:href="#7" y="8.684"/><use xlink:href="#8" y="10.855"/><use xlink:href="#9" y="13.026"/><use xlink:href="#10" y="17.368"/></svg><svg x="5760"><use xlink:href="#a"/><use xlink:href="#b" x="-.004" y="39.053"/><use xlink:href="#2"/><use xlink:href="#4" y="2.171"/><use xlink:href="#5" y="4.342"/><use xlink:href="#6" y="6.513"/><use xlink:href="#7" y="8.684"/><use xlink:href="#8" y="10.855"/><use xlink:href="#9" y="13.026"/><use xlink:href="#10" y="17.368"/><use xlink:href="#11" y="19.539"/><use xlink:href="#12" y="21.71"/><use xlink:href="#13" y="23.881"/><use xlink:href="#14" y="26.052"/><use xlink:href="#15" y="28.223"/><use xlink:href="#16" y="30.394"/><use xlink:href="#17" y="32.565"/><use xlink:href="#18" y="34.736"/></svg><svg x="5880"><use xlink:href="#a"/><use xlink:href="#b" x="-.004" y="69.447"/><use xlink:href="#2"/><use xlink:href="#4" y="2.171"/><use xlink:href="#5" y="4.342"/><use xlink:href="#6" y="6.513"/><use xlink:href="#7" y="8.684"/><use xlink:href="#8" y="10.855"/><use xlink:href="#9" y="13.026"/><use xlink:href="#10" y="17.368"/><use xlink:href="#11" y="19.539"/><use xlink:href="#12" y="21.71"/><use xlink:href="#13" y="23.881"/><use xlink:href="#14" y="26.052"/><use xlink:href="#15" y="28.223"/><use xlink:href="#16" y="30.394"/><use xlink:href="#17" y="32.565"/><use xlink:href="#18" y="34.736"/><use xlink:href="#19" y="41.249"/><use xlink:href="#20" y="43.42"/><use xlink:href="#21" y="45.591"/><use xlink:href="#22" y="47.762"/><use xlink:href="#23" y="49.933"/><use xlink:href="#24" y="54.275"/><use xlink:href="#25" y="56.446"/><use xlink:href="#26" y="58.617"/><use xlink:href="#27" y="60.788"/><use xlink:href="#28" y="62.959"/><use xlink:href="#29" y="67.301"/></svg><svg x="6000"><use xlink:href="#a"/><use xlink:href="#b" x="37.996" y="69.447"/><use xlink:href="#2"/><use xlink:href="#4" y="2.171"/><use xlink:href="#5" y="4.342"/><use xlink:href="#6" y="6.513"/><use xlink:href="#7" y="8.684"/><use xlink:href="#8" y="10.855"/><use xlink:href="#9" y="13.026"/><use xlink:href="#10" y="17.368"/><use xlink:href="#11" y="19.539"/><use xlink:href="#12" y="21.71"/><use xlink:href="#13" y="23.881"/><use xlink:href="#14" y="26.052"/><use xlink:href="#15" y="28.223"/><use xlink:href="#16" y="30.394"/><use xlink:href="#17" y="32.565"/><use xlink:href="#18" y="34.736"/><use xlink:href="#19" y="41.249"/><use xlink:href="#20" y="43.42"/><use xlink:href="#21" y="45.591"/><use xlink:href="#22" y="47.762"/><use xlink:href="#23" y="49.933"/><use xlink:href="#24" y="54.275"/><use xlink:href="#25" y="56.446"/><use xlink:href="#26" y="58.617"/><use xlink:href="#27" y="60.788"/><use xlink:href="#28" y="62.959"/><use xlink:href="#29" y="67.301"/><use xlink:href="#1" y="69.472"/></svg><svg x="6120"><use xlink:href="#a"/><use xlink:href="#b" x="38.996" y="69.447"/><use xlink:href="#2"/><use xlink:href="#4" y="2.171"/><use xlink:href="#5" y="4.342"/><use xlink:href="#6" y="6.513"/><use xlink:href="#7" y="8.684"/><use xlink:href="#8" y="10.855"/><use xlink:href="#9" y="13.026"/><use xlink:href="#10" y="17.368"/><use xlink:href="#11" y="19.539"/><use xlink:href="#12" y="21.71"/><use xlink:href="#13" y="23.881"/><use xlink:href="#14" y="26.052"/><use xlink:href="#15" y="28.223"/><use xlink:href="#16" y="30.394"/><use xlink:href="#17" y="32.565"/><use xlink:href="#18" y="34.736"/><use xlink:href="#19" y="41.249"/><use xlink:href="#20" y="43.42"/><use xlink:href="#21" y="45.591"/><use xlink:href="#22" y="47.762"/><use xlink:href="#23" y="49.933"/><use xlink:href="#24" y="54.275"/><use xlink:href="#25" y="56.446"/><use xlink:href="#26" y="58.617"/><use xlink:href="#27" y="60.788"/><use xlink:href="#28" y="62.959"/><use xlink:href="#29" y="67.301"/><text y="71.142" class="f">LAPTOP-VKHDD5JR:~/src/create-gpg-key#</text><text x="38.076" y="71.142" class="f">l</text></svg><svg x="6240"><use xlink:href="#a"/><use xlink:href="#b" x="39.996" y="69.447"/><use xlink:href="#2"/><use xlink:href="#4" y="2.171"/><use xlink:href="#5" y="4.342"/><use xlink:href="#6" y="6.513"/><use xlink:href="#7" y="8.684"/><use xlink:href="#8" y="10.855"/><use xlink:href="#9" y="13.026"/><use xlink:href="#10" y="17.368"/><use xlink:href="#11" y="19.539"/><use xlink:href="#12" y="21.71"/><use xlink:href="#13" y="23.881"/><use xlink:href="#14" y="26.052"/><use xlink:href="#15" y="28.223"/><use xlink:href="#16" y="30.394"/><use xlink:href="#17" y="32.565"/><use xlink:href="#18" y="34.736"/><use xlink:href="#19" y="41.249"/><use xlink:href="#20" y="43.42"/><use xlink:href="#21" y="45.591"/><use xlink:href="#22" y="47.762"/><use xlink:href="#23" y="49.933"/><use xlink:href="#24" y="54.275"/><use xlink:href="#25" y="56.446"/><use xlink:href="#26" y="58.617"/><use xlink:href="#27" y="60.788"/><use xlink:href="#28" y="62.959"/><use xlink:href="#29" y="67.301"/><use xlink:href="#30" y="69.472"/></svg><svg x="6360"><use xlink:href="#a"/><use xlink:href="#b" x="40.996" y="69.447"/><use xlink:href="#2"/><use xlink:href="#4" y="2.171"/><use xlink:href="#5" y="4.342"/><use xlink:href="#6" y="6.513"/><use xlink:href="#7" y="8.684"/><use xlink:href="#8" y="10.855"/><use xlink:href="#9" y="13.026"/><use xlink:href="#10" y="17.368"/><use xlink:href="#11" y="19.539"/><use xlink:href="#12" y="21.71"/><use xlink:href="#13" y="23.881"/><use xlink:href="#14" y="26.052"/><use xlink:href="#15" y="28.223"/><use xlink:href="#16" y="30.394"/><use xlink:href="#17" y="32.565"/><use xlink:href="#18" y="34.736"/><use xlink:href="#19" y="41.249"/><use xlink:href="#20" y="43.42"/><use xlink:href="#21" y="45.591"/><use xlink:href="#22" y="47.762"/><use xlink:href="#23" y="49.933"/><use xlink:href="#24" y="54.275"/><use xlink:href="#25" y="56.446"/><use xlink:href="#26" y="58.617"/><use xlink:href="#27" y="60.788"/><use xlink:href="#28" y="62.959"/><use xlink:href="#29" y="67.301"/><use xlink:href="#30" y="69.472"/></svg><svg x="6480"><use xlink:href="#a"/><use xlink:href="#b" x="41.996" y="69.447"/><use xlink:href="#2"/><use xlink:href="#4" y="2.171"/><use xlink:href="#5" y="4.342"/><use xlink:href="#6" y="6.513"/><use xlink:href="#7" y="8.684"/><use xlink:href="#8" y="10.855"/><use xlink:href="#9" y="13.026"/><use xlink:href="#10" y="17.368"/><use xlink:href="#11" y="19.539"/><use xlink:href="#12" y="21.71"/><use xlink:href="#13" y="23.881"/><use xlink:href="#14" y="26.052"/><use xlink:href="#15" y="28.223"/><use xlink:href="#16" y="30.394"/><use xlink:href="#17" y="32.565"/><use xlink:href="#18" y="34.736"/><use xlink:href="#19" y="41.249"/><use xlink:href="#20" y="43.42"/><use xlink:href="#21" y="45.591"/><use xlink:href="#22" y="47.762"/><use xlink:href="#23" y="49.933"/><use xlink:href="#24" y="54.275"/><use xlink:href="#25" y="56.446"/><use xlink:href="#26" y="58.617"/><use xlink:href="#27" y="60.788"/><use xlink:href="#28" y="62.959"/><use xlink:href="#29" y="67.301"/><text y="71.142" class="f">LAPTOP-VKHDD5JR:~/src/create-gpg-key#</text><text x="38.076" y="71.142" class="f">ls</text><text x="41.082" y="71.142" class="f">-</text></svg><svg x="6600"><use xlink:href="#a"/><use xlink:href="#b" x="42.996" y="69.447"/><use xlink:href="#2"/><use xlink:href="#4" y="2.171"/><use xlink:href="#5" y="4.342"/><use xlink:href="#6" y="6.513"/><use xlink:href="#7" y="8.684"/><use xlink:href="#8" y="10.855"/><use xlink:href="#9" y="13.026"/><use xlink:href="#10" y="17.368"/><use xlink:href="#11" y="19.539"/><use xlink:href="#12" y="21.71"/><use xlink:href="#13" y="23.881"/><use xlink:href="#14" y="26.052"/><use xlink:href="#15" y="28.223"/><use xlink:href="#16" y="30.394"/><use xlink:href="#17" y="32.565"/><use xlink:href="#18" y="34.736"/><use xlink:href="#19" y="41.249"/><use xlink:href="#20" y="43.42"/><use xlink:href="#21" y="45.591"/><use xlink:href="#22" y="47.762"/><use xlink:href="#23" y="49.933"/><use xlink:href="#24" y="54.275"/><use xlink:href="#25" y="56.446"/><use xlink:href="#26" y="58.617"/><use xlink:href="#27" y="60.788"/><use xlink:href="#28" y="62.959"/><use xlink:href="#29" y="67.301"/><use xlink:href="#31" y="69.472"/></svg><svg x="6720"><use xlink:href="#a"/><use xlink:href="#b" x="-.004" y="71.618"/><use xlink:href="#2"/><use xlink:href="#4" y="2.171"/><use xlink:href="#5" y="4.342"/><use xlink:href="#6" y="6.513"/><use xlink:href="#7" y="8.684"/><use xlink:href="#8" y="10.855"/><use xlink:href="#9" y="13.026"/><use xlink:href="#10" y="17.368"/><use xlink:href="#11" y="19.539"/><use xlink:href="#12" y="21.71"/><use xlink:href="#13" y="23.881"/><use xlink:href="#14" y="26.052"/><use xlink:href="#15" y="28.223"/><use xlink:href="#16" y="30.394"/><use xlink:href="#17" y="32.565"/><use xlink:href="#18" y="34.736"/><use xlink:href="#19" y="41.249"/><use xlink:href="#20" y="43.42"/><use xlink:href="#21" y="45.591"/><use xlink:href="#22" y="47.762"/><use xlink:href="#23" y="49.933"/><use xlink:href="#24" y="54.275"/><use xlink:href="#25" y="56.446"/><use xlink:href="#26" y="58.617"/><use xlink:href="#27" y="60.788"/><use xlink:href="#28" y="62.959"/><use xlink:href="#29" y="67.301"/><use xlink:href="#31" y="69.472"/></svg><svg x="6840"><use xlink:href="#a"/><use xlink:href="#b" x="-.004" y="78.131"/><use xlink:href="#2"/><use xlink:href="#4" y="2.171"/><use xlink:href="#5" y="4.342"/><use xlink:href="#6" y="6.513"/><use xlink:href="#7" y="8.684"/><use xlink:href="#8" y="10.855"/><use xlink:href="#9" y="13.026"/><use xlink:href="#10" y="17.368"/><use xlink:href="#11" y="19.539"/><use xlink:href="#12" y="21.71"/><use xlink:href="#13" y="23.881"/><use xlink:href="#14" y="26.052"/><use xlink:href="#15" y="28.223"/><use xlink:href="#16" y="30.394"/><use xlink:href="#17" y="32.565"/><use xlink:href="#18" y="34.736"/><use xlink:href="#19" y="41.249"/><use xlink:href="#20" y="43.42"/><use xlink:href="#21" y="45.591"/><use xlink:href="#22" y="47.762"/><use xlink:href="#23" y="49.933"/><use xlink:href="#24" y="54.275"/><use xlink:href="#25" y="56.446"/><use xlink:href="#26" y="58.617"/><use xlink:href="#27" y="60.788"/><use xlink:href="#28" y="62.959"/><use xlink:href="#29" y="67.301"/><use xlink:href="#31" y="69.472"/><use xlink:href="#32" y="71.643"/><use xlink:href="#33" y="73.814"/><use xlink:href="#34" y="75.985"/></svg><svg x="6960"><use xlink:href="#a"/><use xlink:href="#b" x="-.004" y="86.815"/><use xlink:href="#4"/><use xlink:href="#5" y="2.171"/><use xlink:href="#6" y="4.342"/><use xlink:href="#7" y="6.513"/><use xlink:href="#8" y="8.684"/><use xlink:href="#9" y="10.855"/><use xlink:href="#10" y="15.197"/><use xlink:href="#11" y="17.368"/><use xlink:href="#12" y="19.539"/><use xlink:href="#13" y="21.71"/><use xlink:href="#14" y="23.881"/><use xlink:href="#15" y="26.052"/><use xlink:href="#16" y="28.223"/><use xlink:href="#17" y="30.394"/><use xlink:href="#18" y="32.565"/><use xlink:href="#19" y="39.078"/><use xlink:href="#20" y="41.249"/><use xlink:href="#21" y="43.42"/><use xlink:href="#22" y="45.591"/><use xlink:href="#23" y="47.762"/><use xlink:href="#24" y="52.104"/><use xlink:href="#25" y="54.275"/><use xlink:href="#26" y="56.446"/><use xlink:href="#27" y="58.617"/><use xlink:href="#28" y="60.788"/><use xlink:href="#29" y="65.13"/><use xlink:href="#31" y="67.301"/><use xlink:href="#32" y="69.472"/><use xlink:href="#33" y="71.643"/><use xlink:href="#34" y="73.814"/><use xlink:href="#35" y="75.985"/><use xlink:href="#36" y="78.156"/><use xlink:href="#37" y="80.327"/><use xlink:href="#38" y="82.498"/><use xlink:href="#39" y="84.669"/></svg><svg x="7080"><use xlink:href="#a"/><use xlink:href="#b" x="37.996" y="86.815"/><use xlink:href="#4"/><use xlink:href="#5" y="2.171"/><use xlink:href="#6" y="4.342"/><use xlink:href="#7" y="6.513"/><use xlink:href="#8" y="8.684"/><use xlink:href="#9" y="10.855"/><use xlink:href="#10" y="15.197"/><use xlink:href="#11" y="17.368"/><use xlink:href="#12" y="19.539"/><use xlink:href="#13" y="21.71"/><use xlink:href="#14" y="23.881"/><use xlink:href="#15" y="26.052"/><use xlink:href="#16" y="28.223"/><use xlink:href="#17" y="30.394"/><use xlink:href="#18" y="32.565"/><use xlink:href="#19" y="39.078"/><use xlink:href="#20" y="41.249"/><use xlink:href="#21" y="43.42"/><use xlink:href="#22" y="45.591"/><use xlink:href="#23" y="47.762"/><use xlink:href="#24" y="52.104"/><use xlink:href="#25" y="54.275"/><use xlink:href="#26" y="56.446"/><use xlink:href="#27" y="58.617"/><use xlink:href="#28" y="60.788"/><use xlink:href="#29" y="65.13"/><use xlink:href="#31" y="67.301"/><use xlink:href="#32" y="69.472"/><use xlink:href="#33" y="71.643"/><use xlink:href="#34" y="73.814"/><use xlink:href="#35" y="75.985"/><use xlink:href="#36" y="78.156"/><use xlink:href="#37" y="80.327"/><use xlink:href="#38" y="82.498"/><use xlink:href="#39" y="84.669"/><use xlink:href="#1" y="86.84"/></svg><svg x="7200"><use xlink:href="#a"/><use xlink:href="#b" x="38.996" y="86.815"/><use xlink:href="#4"/><use xlink:href="#5" y="2.171"/><use xlink:href="#6" y="4.342"/><use xlink:href="#7" y="6.513"/><use xlink:href="#8" y="8.684"/><use xlink:href="#9" y="10.855"/><use xlink:href="#10" y="15.197"/><use xlink:href="#11" y="17.368"/><use xlink:href="#12" y="19.539"/><use xlink:href="#13" y="21.71"/><use xlink:href="#14" y="23.881"/><use xlink:href="#15" y="26.052"/><use xlink:href="#16" y="28.223"/><use xlink:href="#17" y="30.394"/><use xlink:href="#18" y="32.565"/><use xlink:href="#19" y="39.078"/><use xlink:href="#20" y="41.249"/><use xlink:href="#21" y="43.42"/><use xlink:href="#22" y="45.591"/><use xlink:href="#23" y="47.762"/><use xlink:href="#24" y="52.104"/><use xlink:href="#25" y="54.275"/><use xlink:href="#26" y="56.446"/><use xlink:href="#27" y="58.617"/><use xlink:href="#28" y="60.788"/><use xlink:href="#29" y="65.13"/><use xlink:href="#31" y="67.301"/><use xlink:href="#32" y="69.472"/><use xlink:href="#33" y="71.643"/><use xlink:href="#34" y="73.814"/><use xlink:href="#35" y="75.985"/><use xlink:href="#36" y="78.156"/><use xlink:href="#37" y="80.327"/><use xlink:href="#38" y="82.498"/><use xlink:href="#39" y="84.669"/><text y="88.51" class="f">LAPTOP-VKHDD5JR:~/src/create-gpg-key#</text><text x="38.076" y="88.51" class="f">e</text></svg><svg x="7320"><use xlink:href="#a"/><use xlink:href="#b" x="37.996" y="86.815"/><use xlink:href="#4"/><use xlink:href="#5" y="2.171"/><use xlink:href="#6" y="4.342"/><use xlink:href="#7" y="6.513"/><use xlink:href="#8" y="8.684"/><use xlink:href="#9" y="10.855"/><use xlink:href="#10" y="15.197"/><use xlink:href="#11" y="17.368"/><use xlink:href="#12" y="19.539"/><use xlink:href="#13" y="21.71"/><use xlink:href="#14" y="23.881"/><use xlink:href="#15" y="26.052"/><use xlink:href="#16" y="28.223"/><use xlink:href="#17" y="30.394"/><use xlink:href="#18" y="32.565"/><use xlink:href="#19" y="39.078"/><use xlink:href="#20" y="41.249"/><use xlink:href="#21" y="43.42"/><use xlink:href="#22" y="45.591"/><use xlink:href="#23" y="47.762"/><use xlink:href="#24" y="52.104"/><use xlink:href="#25" y="54.275"/><use xlink:href="#26" y="56.446"/><use xlink:href="#27" y="58.617"/><use xlink:href="#28" y="60.788"/><use xlink:href="#29" y="65.13"/><use xlink:href="#31" y="67.301"/><use xlink:href="#32" y="69.472"/><use xlink:href="#33" y="71.643"/><use xlink:href="#34" y="73.814"/><use xlink:href="#35" y="75.985"/><use xlink:href="#36" y="78.156"/><use xlink:href="#37" y="80.327"/><use xlink:href="#38" y="82.498"/><use xlink:href="#39" y="84.669"/><use xlink:href="#1" y="86.84"/></svg><svg x="7440"><use xlink:href="#a"/><use xlink:href="#b" x="-.004" y="86.815"/><use xlink:href="#5"/><use xlink:href="#6" y="2.171"/><use xlink:href="#7" y="4.342"/><use xlink:href="#8" y="6.513"/><use xlink:href="#9" y="8.684"/><use xlink:href="#10" y="13.026"/><use xlink:href="#11" y="15.197"/><use xlink:href="#12" y="17.368"/><use xlink:href="#13" y="19.539"/><use xlink:href="#14" y="21.71"/><use xlink:href="#15" y="23.881"/><use xlink:href="#16" y="26.052"/><use xlink:href="#17" y="28.223"/><use xlink:href="#18" y="30.394"/><use xlink:href="#19" y="36.907"/><use xlink:href="#20" y="39.078"/><use xlink:href="#21" y="41.249"/><use xlink:href="#22" y="43.42"/><use xlink:href="#23" y="45.591"/><use xlink:href="#24" y="49.933"/><use xlink:href="#25" y="52.104"/><use xlink:href="#26" y="54.275"/><use xlink:href="#27" y="56.446"/><use xlink:href="#28" y="58.617"/><use xlink:href="#29" y="62.959"/><use xlink:href="#31" y="65.13"/><use xlink:href="#32" y="67.301"/><use xlink:href="#33" y="69.472"/><use xlink:href="#34" y="71.643"/><use xlink:href="#35" y="73.814"/><use xlink:href="#36" y="75.985"/><use xlink:href="#37" y="78.156"/><use xlink:href="#38" y="80.327"/><use xlink:href="#39" y="82.498"/><use xlink:href="#1" y="84.669"/></svg><svg x="7560"><use xlink:href="#a"/><use xlink:href="#b" x="-.004" y="86.815"/><use xlink:href="#6"/><use xlink:href="#7" y="2.171"/><use xlink:href="#8" y="4.342"/><use xlink:href="#9" y="6.513"/><use xlink:href="#10" y="10.855"/><use xlink:href="#11" y="13.026"/><use xlink:href="#12" y="15.197"/><use xlink:href="#13" y="17.368"/><use xlink:href="#14" y="19.539"/><use xlink:href="#15" y="21.71"/><use xlink:href="#16" y="23.881"/><use xlink:href="#17" y="26.052"/><use xlink:href="#18" y="28.223"/><use xlink:href="#19" y="34.736"/><use xlink:href="#20" y="36.907"/><use xlink:href="#21" y="39.078"/><use xlink:href="#22" y="41.249"/><use xlink:href="#23" y="43.42"/><use xlink:href="#24" y="47.762"/><use xlink:href="#25" y="49.933"/><use xlink:href="#26" y="52.104"/><use xlink:href="#27" y="54.275"/><use xlink:href="#28" y="56.446"/><use xlink:href="#29" y="60.788"/><use xlink:href="#31" y="62.959"/><use xlink:href="#32" y="65.13"/><use xlink:href="#33" y="67.301"/><use xlink:href="#34" y="69.472"/><use xlink:href="#35" y="71.643"/><use xlink:href="#36" y="73.814"/><use xlink:href="#37" y="75.985"/><use xlink:href="#38" y="78.156"/><use xlink:href="#39" y="80.327"/><use xlink:href="#1" y="82.498"/><text y="86.339" class="f">exit</text></svg></svg></g></g></svg></svg>